<svg viewBox="0 0 41 40" fill="none" xmlns="http://www.w3.org/2000/svg">
<g id="logo_icon">
<path id="Vector" d="M23.1158 8.24464C23.8293 8.33448 24.5463 8.57283 25.2316 8.98132L37.2143 16.1241C41.7048 18.8009 40.5218 25.8052 35.4188 26.7546L32.1234 27.3676C30.8499 27.6045 29.6961 28.2925 28.8606 29.3127L26.6989 31.9526C23.351 36.0407 16.8843 33.5963 16.8843 28.2428V27.7532C20.0335 28.1496 23.1158 25.6469 23.1158 22.041V8.24464Z" fill="#BA7E79"/>
<path id="Vector_2" d="M16.8843 13.9591C16.8844 10.3532 19.9666 7.85008 23.1158 8.24659V22.0429C23.1158 25.6488 20.0335 28.1516 16.8843 27.7551V13.9591Z" fill="#6F2B29"/>
<path id="Vector_3" d="M13.3012 4.04736C16.6491 -0.0406929 23.1159 2.40373 23.1159 7.75723L23.1158 8.24659C19.9666 7.85008 16.8844 10.3532 16.8843 13.9591V27.7551C16.1707 27.6653 15.4536 27.4272 14.7682 27.0187L2.78559 19.8759C-1.70486 17.1991 -0.521663 10.1948 4.58132 9.24537L7.87651 8.63208C9.14998 8.39515 10.3037 7.70748 11.1392 6.68729L13.3012 4.04736Z" fill="#985856"/>
</g>
</svg>
