<svg viewBox="0 0 136 40" fill="none" xmlns="http://www.w3.org/2000/svg">
<g id="logo">
<path id="Vector" d="M49.9715 27.4066C49.2772 27.4066 48.7144 26.8424 48.7144 26.1463V9.3625C48.7144 8.66643 49.2772 8.10215 49.9715 8.10215H52.9646C53.6384 8.10215 54.1924 8.63471 54.2207 9.30963L54.3997 13.5837C54.4091 13.8078 54.2074 13.982 53.9877 13.9396C53.8105 13.9055 53.6886 13.7405 53.7119 13.5611C53.8919 12.1783 54.2454 11.0643 54.7724 10.2192C55.3628 9.31018 56.095 8.6643 56.9688 8.28156C57.8427 7.8749 58.811 7.67157 59.8738 7.67157C61.2201 7.67157 62.3773 7.97059 63.3457 8.56862C64.3376 9.14273 65.0934 9.97997 65.613 11.0804C66.1326 12.1568 66.3924 13.4605 66.3924 14.9915V26.1463C66.3924 26.8424 65.8295 27.4066 65.1352 27.4066H61.5561C60.8618 27.4066 60.299 26.8424 60.299 26.1463V17.1085C60.299 16.1278 60.2281 15.2905 60.0864 14.5968C59.9447 13.9031 59.6849 13.3768 59.307 13.018C58.9527 12.6592 58.4331 12.4798 57.7482 12.4798C56.7563 12.4798 56.0123 12.8864 55.5163 13.6997C55.044 14.4891 54.8078 15.6254 54.8078 17.1085V26.1463C54.8078 26.8424 54.2449 27.4066 53.5506 27.4066H49.9715Z" fill="#985856"/>
<path id="Vector_2" d="M79.6982 27.8372C77.7143 27.8372 75.9783 27.4186 74.4904 26.5814C73.0025 25.7441 71.8452 24.572 71.0186 23.0649C70.192 21.5579 69.7786 19.7877 69.7786 17.7544C69.7786 15.7211 70.192 13.9629 71.0186 12.4798C71.8452 10.9727 72.9907 9.80057 74.455 8.96332C75.9429 8.10215 77.6788 7.67157 79.6628 7.67157C81.6467 7.67157 83.3589 8.10215 84.7996 8.96332C86.264 9.80057 87.3858 11.0086 88.1652 12.5874C88.9446 14.1662 89.3343 16.044 89.3343 18.2209C89.3343 18.855 88.8215 19.3691 88.189 19.3691H77.4102C76.6897 19.3691 76.0951 19.9829 76.2751 20.6823C76.4564 21.3868 76.759 21.9538 77.1829 22.3832C77.8678 23.0291 78.7416 23.352 79.8045 23.352C80.6075 23.352 81.2806 23.1965 81.8238 22.8855C82.1211 22.7022 82.3724 22.458 82.5778 22.1529C82.899 21.6756 83.3939 21.2945 83.9673 21.3282L87.5592 21.5397C88.3499 21.5863 88.9084 22.3525 88.5769 23.0737C87.97 24.3945 87.0416 25.456 85.7916 26.2584C84.1147 27.311 82.0836 27.8372 79.6982 27.8372ZM76.3679 14.4937C76.1263 15.1984 76.7291 15.8527 77.4724 15.8527H81.865C82.5777 15.8527 83.173 15.2502 82.9914 14.5593C82.8234 13.9198 82.5405 13.406 82.1426 13.018C81.5049 12.3721 80.6783 12.0492 79.6628 12.0492C78.6944 12.0492 77.8796 12.3841 77.2183 13.0539C76.8465 13.4444 76.563 13.9243 76.3679 14.4937Z" fill="#985856"/>
<path id="Vector_3" d="M101.823 27.8372C99.8389 27.8372 98.103 27.4186 96.615 26.5814C95.1271 25.7441 93.9698 24.572 93.1432 23.0649C92.3165 21.5579 91.9032 19.7877 91.9032 17.7544C91.9032 15.7211 92.3165 13.9629 93.1432 12.4798C93.9698 10.9727 95.1153 9.80057 96.5796 8.96332C98.0675 8.10215 99.8034 7.67157 101.787 7.67157C103.771 7.67157 105.484 8.10215 106.924 8.96332C108.389 9.80057 109.51 11.0086 110.29 12.5874C111.069 14.1662 111.459 16.044 111.459 18.2209C111.459 18.855 110.946 19.3691 110.314 19.3691H99.5348C98.8144 19.3691 98.2197 19.9829 98.3997 20.6823C98.5809 21.3868 98.8836 21.9538 99.3075 22.3832C99.9924 23.0291 100.866 23.352 101.929 23.352C102.732 23.352 103.405 23.1965 103.948 22.8855C104.246 22.7022 104.497 22.458 104.702 22.1529C105.024 21.6756 105.519 21.2945 106.092 21.3282L109.684 21.5397C110.475 21.5863 111.033 22.3525 110.702 23.0737C110.095 24.3945 109.166 25.456 107.916 26.2584C106.239 27.311 104.208 27.8372 101.823 27.8372ZM98.4925 14.4937C98.2509 15.1984 98.8537 15.8527 99.597 15.8527H103.99C104.702 15.8527 105.298 15.2502 105.116 14.5593C104.948 13.9198 104.665 13.406 104.267 13.018C103.63 12.3721 102.803 12.0492 101.787 12.0492C100.819 12.0492 100.004 12.3841 99.3429 13.0539C98.9711 13.4444 98.6876 13.9243 98.4925 14.4937Z" fill="#985856"/>
<path id="Vector_4" d="M115.579 27.4066C114.885 27.4066 114.322 26.8424 114.322 26.1463V23.2936C114.322 22.9631 114.452 22.6458 114.683 22.4101L122.246 14.6954C123.027 13.8983 122.464 12.5515 121.349 12.5515H116.075C115.381 12.5515 114.818 11.9872 114.818 11.2912V9.36251C114.818 8.66643 115.381 8.10215 116.075 8.10215H130.495C131.189 8.10215 131.752 8.66643 131.752 9.36251V12.2088C131.752 12.5431 131.62 12.8637 131.384 13.1001L123.696 20.8056C122.904 21.5995 123.465 22.9573 124.585 22.9573H130.743C131.437 22.9573 132 23.5216 132 24.2176V26.1463C132 26.8424 131.437 27.4066 130.743 27.4066H115.579Z" fill="#985856"/>
<path id="Vector_5" d="M23.794 8.24464C24.5076 8.33448 25.2246 8.57283 25.9099 8.98132L37.8925 16.1241C42.383 18.8009 41.2001 25.8052 36.0971 26.7546L32.8016 27.3676C31.5281 27.6045 30.3743 28.2925 29.5389 29.3127L27.3771 31.9526C24.0293 36.0407 17.5625 33.5963 17.5625 28.2428V27.7532C20.7117 28.1496 23.794 25.6469 23.794 22.041V8.24464Z" fill="#BA7E79"/>
<path id="Vector_6" d="M17.5625 13.9591C17.5626 10.3532 20.6448 7.85008 23.794 8.24659V22.0429C23.794 25.6488 20.7117 28.1516 17.5625 27.7551V13.9591Z" fill="#6F2B29"/>
<path id="Vector_7" d="M13.9795 4.04736C17.3273 -0.0406934 23.7941 2.40373 23.7941 7.75724L23.794 8.24659C20.6448 7.85008 17.5626 10.3532 17.5625 13.9591V27.7551C16.8489 27.6653 16.1318 27.4272 15.4464 27.0187L3.46382 19.8759C-1.02664 17.1991 0.156559 10.1948 5.25954 9.24537L8.55473 8.63208C9.8282 8.39515 10.982 7.70748 11.8174 6.68729L13.9795 4.04736Z" fill="#985856"/>
</g>
</svg>
